<svg version="1.1" xmlns="http://www.w3.org/2000/svg" width="2000" height="2000" viewBox="-2184.6218869333934 -1410.7 6918.821886933393 2162.3999999999996"><desc>Created with Snap</desc><defs></defs><g><g transform="matrix(17.2191,0,0,17.2191,-1963.5175,-1189.5957)"><g><path d="M78.4,66.5c-5.5,4.8-9.9,15.2-9.9,15.2s-6.9-11.4-12.9-15.3c-9.5-6.1-13.6-6.2-13.6-6.2V65c0,0,7.8,1.2,11.7,4.6   c8.2,7.1,14.8,18.5,14.8,18.5S74.4,75,80.1,70.5C88.1,64.3,95,65,95,65v-4.8C95,60.1,85.1,60.7,78.4,66.5z" style="" fill="#e4473e"></path><path d="M42,80c-6.4-3.6-17.8-4.3-17.8-4.3s8.7-10.1,10.5-17C37.5,47.9,36.2,44,36.2,44l-4.6,1.6c0,0,1.3,7.7-0.6,12.4   c-4.1,9.9-13,19.8-13,19.8s14.6,1.3,20.7,5.1c8.6,5.4,10.2,12,10.2,12l4.6-1.6C53.5,93.4,49.7,84.4,42,80z" style="" fill="#e4473e"></path><path d="M35.3,36.8c11.3-0.9,14.6-3.4,14.6-3.4l-3-3.8c0,0-6.9,3.7-12.1,3.4c-10.9-0.6-23.3-5.6-23.3-5.6s3.5,14,1.8,20.9   C10.9,58.2,5,61.8,5,61.8l3,3.8c0,0,7.5-6.5,9.1-15.1c1.3-7.1-1.7-18-1.7-18S28,37.4,35.3,36.8z" style="" fill="#e4473e"></path><path d="M37.4,17.8c7.3-1.1,16.7-7.4,16.7-7.4s-0.6,13.2,2.4,19.8c4.6,10.2,8,12.5,8,12.5l2.7-4c0,0-5.9-5.2-7.3-10.2   C56.9,18.2,57.7,5,57.7,5s-12.3,7.8-19.5,8.5c-10.2,1-15.6-3.3-15.6-3.3l-2.7,4.1C19.9,14.2,28.6,19.1,37.4,17.8z" style="" fill="#e4473e"></path><path d="M65,60.5c0,0,3.1-7.2,7.4-10.1c9-6.1,21.9-9.7,21.9-9.7s-11.5-8.9-14.5-15.4c-4.2-9.1-1.9-15.6-1.9-15.6l-4.8-1.2   c0,0-1.9,9.6,2.2,17.4c3.4,6.4,12.5,13.2,12.5,13.2S75,42.9,69.6,47.8c-8.3,7.6-9.4,11.5-9.4,11.5L65,60.5z" style="" fill="#e4473e"></path></g><desc>Created with Snap</desc><defs></defs></g><g><g transform="matrix(0.5,0,0,-0.5,0,0)"><path d="M188 0L189 5L204 11Q240 27 255 59Q271 91 268 133Q257 259 238 374Q220 489 200 606Q177 736 148 874Q120 1013 84 1174Q71 1227 42 1266Q14 1305 -40 1322L-41 1327L319 1327L320 1322Q272 1305 254 1268Q237 1232 242 1178Q258 1045 281 912Q304 779 327 643Q336 579 347 502Q358 426 370 354Q381 426 392 502Q404 579 413 643Q436 779 459 912Q482 1045 498 1178Q503 1232 485 1268Q468 1305 420 1322L421 1327L781 1327L780 1322Q726 1305 697 1266Q669 1227 656 1174Q620 1013 591 874Q563 736 540 606Q520 489 501 374Q483 259 472 133Q468 91 484 59Q500 27 535 11L551 5L552 0L188 0ZM1166 336L1167 341L1386 321Q1386 231 1360 165Q1335 100 1295 56Q1256 13 1208 -8Q1160 -29 1114 -29Q1048 -29 991 5Q934 39 892 104Q850 169 826 264Q802 359 802 482Q802 605 826 700Q850 795 892 860Q934 925 991 959Q1048 993 1114 993Q1169 993 1215 963Q1262 934 1297 876Q1332 819 1353 733Q1375 648 1380 537L957 389Q970 225 1015 150Q1060 76 1129 76Q1162 76 1184 88Q1207 101 1221 121Q1236 142 1242 167Q1249 193 1249 220Q1249 252 1228 283Q1208 314 1166 336ZM952 482L952 478Q981 489 1024 506Q1067 523 1132 553Q1169 570 1196 587Q1223 604 1244 616Q1234 755 1201 821Q1169 887 1114 887Q1037 887 994 785Q952 683 952 482ZM2129 592Q2129 522 2129 463Q2129 405 2130 349Q2131 293 2133 235Q2135 177 2138 109Q2141 71 2163 44Q2185 18 2231 5L2231 0L1919 0L1919 5Q1954 16 1969 45Q1985 75 1988 113Q1991 207 1992 281Q1994 356 1994 409Q1994 515 1992 603Q1990 691 1980 753Q1970 816 1950 850Q1931 885 1895 885Q1862 885 1833 866Q1804 847 1782 812Q1761 778 1748 730Q1735 682 1735 624L1735 494Q1735 397 1737 301Q1739 206 1744 109Q1747 71 1764 44Q1782 18 1817 5L1817 0L1492 0L1492 5Q1543 16 1565 45Q1588 75 1591 113Q1596 212 1599 299Q1602 387 1602 471Q1602 586 1600 662Q1598 738 1584 783Q1571 829 1541 848Q1512 867 1457 867L1457 872L1728 992Q1720 965 1719 929Q1718 894 1718 856Q1738 898 1762 924Q1786 951 1811 966Q1836 981 1860 986Q1885 992 1906 992Q2010 992 2069 890Q2129 789 2129 592ZM2867 281L2871 282L2920 146Q2873 59 2807 15Q2742 -29 2661 -29Q2586 -29 2521 4Q2457 38 2409 103Q2362 168 2335 263Q2308 358 2308 481Q2308 604 2333 699Q2359 794 2403 859Q2448 924 2508 958Q2569 992 2640 992Q2713 992 2765 969Q2818 947 2855 906Q2892 866 2916 810Q2941 754 2959 687L2764 585L2761 590Q2781 615 2790 639Q2799 664 2799 688Q2799 719 2793 754Q2787 790 2770 819Q2754 848 2726 867Q2698 887 2654 887Q2612 887 2576 862Q2540 838 2513 788Q2487 738 2472 661Q2458 585 2458 481Q2458 280 2514 178Q2570 76 2670 76Q2707 76 2738 92Q2770 108 2795 135Q2820 163 2838 200Q2856 238 2867 281ZM3195 482Q3195 281 3235 179Q3275 77 3347 77Q3420 77 3456 179Q3493 281 3493 482Q3493 683 3456 784Q3420 885 3347 885Q3275 885 3235 784Q3195 683 3195 482ZM3045 482Q3045 605 3068 700Q3092 795 3132 860Q3173 925 3228 958Q3283 992 3347 992Q3408 992 3462 958Q3516 925 3556 860Q3596 795 3619 700Q3643 605 3643 482Q3643 359 3619 264Q3596 169 3556 104Q3516 39 3462 5Q3408 -29 3347 -29Q3283 -29 3228 5Q3173 39 3132 104Q3092 169 3068 264Q3045 359 3045 482ZM4719 637Q4723 578 4725 513Q4727 448 4728 381Q4729 315 4729 248Q4729 181 4729 117Q4730 91 4736 73Q4742 55 4752 42Q4762 30 4777 21Q4792 12 4812 5L4812 0L4510 0L4510 5Q4545 21 4561 45Q4577 70 4579 121Q4580 162 4581 203Q4583 245 4583 283Q4584 321 4584 353Q4585 386 4585 409Q4585 515 4582 603Q4580 691 4569 753Q4559 816 4537 850Q4515 885 4476 885Q4440 885 4407 866Q4374 847 4349 812Q4325 778 4310 730Q4296 682 4296 624L4296 534Q4296 486 4296 432Q4297 379 4298 325Q4299 271 4300 218Q4302 165 4305 117Q4307 91 4313 73Q4320 55 4331 42Q4342 30 4358 21Q4375 12 4398 5L4398 0L4053 0L4053 5Q4104 21 4126 45Q4149 70 4152 121Q4154 169 4156 220Q4158 272 4159 322Q4161 373 4162 421Q4163 469 4163 511Q4163 614 4161 682Q4159 751 4147 792Q4136 833 4110 850Q4085 867 4038 867L4038 872L4309 992Q4301 969 4300 938Q4299 908 4299 876Q4319 912 4343 934Q4367 957 4392 969Q4417 982 4441 987Q4466 992 4487 992Q4551 992 4599 955Q4648 918 4677 846Q4700 890 4727 918Q4755 947 4783 963Q4812 980 4839 986Q4867 992 4890 992Q5007 992 5075 890Q5143 788 5143 592Q5143 528 5143 469Q5143 410 5144 352Q5145 294 5147 236Q5149 178 5152 117Q5154 91 5161 73Q5168 55 5181 42Q5194 30 5212 21Q5230 12 5255 5L5255 0L4923 0L4923 5Q4963 21 4981 45Q5000 70 5002 121Q5003 162 5004 203Q5006 245 5006 283Q5007 321 5007 353Q5008 386 5008 409Q5008 515 5005 603Q5003 691 4991 753Q4979 816 4955 850Q4931 885 4889 885Q4856 885 4825 867Q4795 849 4772 816Q4749 783 4734 737Q4720 692 4719 637ZM5253 1267L5544 1347Q5533 1204 5532 1037Q5532 870 5532 684Q5532 548 5532 415Q5533 282 5541 149Q5545 95 5569 58Q5593 22 5644 5L5644 0L5283 0L5283 5Q5334 22 5356 61Q5378 100 5382 153Q5389 314 5393 452Q5398 590 5398 721Q5398 849 5397 938Q5397 1028 5393 1088Q5389 1148 5380 1183Q5372 1218 5355 1235Q5339 1253 5314 1257Q5289 1262 5253 1262L5253 1267ZM5918 675L5916 672L5746 777Q5759 848 5785 890Q5812 933 5844 955Q5877 978 5913 985Q5950 992 5985 992Q6109 992 6170 903Q6232 814 6231 640Q6231 549 6230 482Q6230 416 6230 369Q6230 322 6229 291Q6229 261 6229 241Q6229 222 6229 210Q6229 198 6229 188Q6229 163 6232 135Q6235 107 6244 81Q6254 56 6272 35Q6291 15 6322 5L6322 0L6167 0Q6144 14 6132 38Q6120 62 6114 91Q6108 79 6095 58Q6082 38 6061 18Q6040 -1 6010 -15Q5981 -29 5942 -29Q5885 -29 5843 -6Q5802 17 5775 56Q5748 95 5735 145Q5722 196 5722 250Q5722 319 5743 387Q5765 456 5804 510Q5844 565 5899 599Q5954 633 6022 633Q6056 633 6087 626Q6087 706 6080 757Q6073 808 6059 837Q6045 866 6023 876Q6002 887 5974 887Q5950 887 5933 879Q5917 871 5906 857Q5896 843 5891 824Q5887 806 5887 785Q5887 757 5895 728Q5904 699 5918 675ZM5959 77Q5997 77 6021 105Q6046 134 6060 176Q6075 218 6081 265Q6087 313 6087 351L6087 542Q6058 552 6029 552Q5989 552 5958 528Q5927 505 5906 467Q5885 429 5874 379Q5863 329 5863 277Q5863 237 5869 201Q5875 165 5887 137Q5899 110 5917 93Q5935 77 5959 77ZM7014 840L7013 624Q7012 506 7013 395Q7015 284 7022 169Q7026 108 7053 65Q7080 23 7135 5L7135 0L6950 0Q6918 14 6901 38Q6885 62 6877 91Q6871 80 6858 62Q6846 44 6826 27Q6807 11 6779 -2Q6752 -14 6715 -15Q6640 -16 6584 23Q6528 63 6490 133Q6452 204 6433 301Q6414 398 6414 512Q6414 625 6437 714Q6460 803 6501 865Q6543 927 6600 959Q6658 992 6727 992Q6745 992 6766 987Q6787 983 6808 972Q6829 962 6847 945Q6866 929 6878 906Q6878 999 6877 1066Q6876 1133 6863 1176Q6851 1220 6821 1241Q6792 1262 6735 1262L6735 1267L7026 1347Q7022 1311 7020 1250Q7018 1189 7016 1118Q7015 1047 7014 974Q7014 901 7014 840ZM6732 76Q6785 76 6826 131Q6867 186 6872 296Q6875 346 6876 390Q6878 435 6878 477Q6879 520 6879 562Q6880 604 6880 649Q6880 739 6865 789Q6850 839 6829 862Q6809 886 6787 891Q6766 896 6753 896Q6564 896 6564 512Q6564 406 6576 324Q6588 243 6610 188Q6633 133 6663 104Q6694 76 6732 76ZM7310 517Q7310 610 7309 675Q7309 740 7305 783Q7301 827 7292 852Q7284 877 7267 889Q7251 902 7226 905Q7201 908 7165 908L7165 913L7456 993Q7445 884 7444 752Q7444 621 7444 480Q7444 424 7444 386Q7444 348 7444 314Q7445 280 7447 242Q7449 205 7453 149Q7457 95 7481 58Q7505 22 7556 5L7556 0L7195 0L7195 5Q7246 22 7268 61Q7290 100 7294 153Q7296 199 7298 233Q7301 268 7302 296Q7304 324 7305 348Q7307 372 7308 397Q7309 422 7309 450Q7310 479 7310 517ZM7271 1235Q7271 1273 7297 1299Q7323 1326 7361 1326Q7399 1326 7425 1299Q7452 1273 7452 1235Q7452 1197 7425 1171Q7399 1145 7361 1145Q7323 1145 7297 1171Q7271 1197 7271 1235ZM7794 482Q7794 281 7834 179Q7874 77 7946 77Q8019 77 8055 179Q8092 281 8092 482Q8092 683 8055 784Q8019 885 7946 885Q7874 885 7834 784Q7794 683 7794 482ZM7644 482Q7644 605 7667 700Q7691 795 7731 860Q7772 925 7827 958Q7882 992 7946 992Q8007 992 8061 958Q8115 925 8155 860Q8195 795 8218 700Q8242 605 8242 482Q8242 359 8218 264Q8195 169 8155 104Q8115 39 8061 5Q8007 -29 7946 -29Q7882 -29 7827 5Q7772 39 7731 104Q7691 169 7667 264Q7644 359 7644 482ZM8566 968L8636 968Q8691 968 8729 969Q8768 971 8793 973Q8822 975 8840 978L8800 848Q8789 859 8768 869Q8750 877 8718 884Q8686 891 8635 891L8563 891Q8562 856 8562 819Q8562 783 8562 745Q8562 658 8562 589Q8563 521 8563 460Q8564 400 8564 340Q8565 281 8565 211Q8565 141 8588 111Q8611 81 8640 81Q8656 81 8672 91Q8688 102 8701 121Q8714 141 8722 167Q8730 194 8730 226Q8730 252 8724 269L8727 271L8854 56Q8789 11 8733 -9Q8678 -28 8630 -28Q8581 -28 8542 -4Q8504 21 8477 61Q8451 101 8437 152Q8423 204 8423 258Q8423 319 8424 365Q8425 412 8425 453Q8426 494 8427 533Q8428 573 8428 621Q8428 709 8428 776Q8428 844 8427 896Q8398 898 8379 900Q8360 902 8349 904Q8336 906 8328 908L8328 968L8426 968Q8424 1026 8421 1058Q8418 1091 8412 1107Q8406 1124 8396 1128Q8387 1132 8373 1132L8373 1137L8604 1247Q8587 1182 8578 1112Q8570 1043 8566 968Z" style="" fill="#1a283f"></path></g></g></g></svg>